<svg width="45" height="41" viewBox="0 0 45 41" fill="none" xmlns="http://www.w3.org/2000/svg">
<path fill-rule="evenodd" clip-rule="evenodd" d="M41.1292 20.8172H3.8794C2.59362 20.8172 1.55129 21.8595 1.55129 23.1453V36.6484H43.4573V23.1453C43.4573 21.8595 42.415 20.8172 41.1292 20.8172ZM3.8794 19.4203C1.82215 19.4203 0.154419 21.0881 0.154419 23.1453V38.0452H44.8542V23.1453C44.8542 21.0881 43.1864 19.4203 41.1292 19.4203H3.8794Z" fill="white"/>
<path fill-rule="evenodd" clip-rule="evenodd" d="M7.18398 10.8099C8.23216 7.79298 10.1205 5.68451 12.8012 5.68451H32.2072C34.8879 5.68451 36.7762 7.79298 37.8244 10.8099L37.8266 10.8164L40.8619 20.1353L39.5337 20.5679L36.5026 11.2619C35.5286 8.46294 33.9922 7.08138 32.2072 7.08138H12.8012C11.0161 7.08138 9.47975 8.46298 8.50569 11.262L5.47463 20.5679L4.14644 20.1353L7.18175 10.8164L7.18398 10.8099Z" fill="white"/>
<path fill-rule="evenodd" clip-rule="evenodd" d="M11.3293 1.72672C11.3293 1.2124 11.7463 0.795471 12.2606 0.795471H18.7793C19.2936 0.795471 19.7105 1.2124 19.7105 1.72672C19.7105 2.24103 19.2936 2.65796 18.7793 2.65796H12.2606C11.7463 2.65796 11.3293 2.24103 11.3293 1.72672Z" fill="white"/>
<path fill-rule="evenodd" clip-rule="evenodd" d="M2.01683 39.9077C2.01683 39.3934 2.43376 38.9765 2.94808 38.9765H9.46679C9.9811 38.9765 10.398 39.3934 10.398 39.9077C10.398 40.4221 9.9811 40.839 9.46679 40.839H2.94808C2.43376 40.839 2.01683 40.4221 2.01683 39.9077Z" fill="white"/>
<path fill-rule="evenodd" clip-rule="evenodd" d="M35.5417 39.9077C35.5417 39.3934 35.9586 38.9765 36.4729 38.9765H42.9916C43.5059 38.9765 43.9229 39.3934 43.9229 39.9077C43.9229 40.4221 43.5059 40.839 42.9916 40.839H36.4729C35.9586 40.839 35.5417 40.4221 35.5417 39.9077Z" fill="white"/>
<path fill-rule="evenodd" clip-rule="evenodd" d="M25.298 1.72672C25.298 1.2124 25.7149 0.795471 26.2292 0.795471H32.7479C33.2622 0.795471 33.6792 1.2124 33.6792 1.72672C33.6792 2.24103 33.2622 2.65796 32.7479 2.65796H26.2292C25.7149 2.65796 25.298 2.24103 25.298 1.72672Z" fill="white"/>
<path d="M9.46685 25.9391C9.46685 26.9677 8.63298 27.8016 7.60436 27.8016C6.57573 27.8016 5.74187 26.9677 5.74187 25.9391C5.74187 24.9105 6.57573 24.0766 7.60436 24.0766C8.63298 24.0766 9.46685 24.9105 9.46685 25.9391Z" fill="white"/>
<path d="M40.198 25.9391C40.198 26.9677 39.3641 27.8016 38.3355 27.8016C37.3069 27.8016 36.473 26.9677 36.473 25.9391C36.473 24.9105 37.3069 24.0766 38.3355 24.0766C39.3641 24.0766 40.198 24.9105 40.198 25.9391Z" fill="white"/>
<path fill-rule="evenodd" clip-rule="evenodd" d="M14.1231 31.5265C14.1231 31.0122 14.54 30.5953 15.0543 30.5953L30.8855 30.5953C31.3998 30.5953 31.8167 31.0122 31.8167 31.5265C31.8167 32.0408 31.3998 32.4578 30.8855 32.4578L15.0543 32.4578C14.54 32.4578 14.1231 32.0408 14.1231 31.5265Z" fill="white"/>
<path fill-rule="evenodd" clip-rule="evenodd" d="M20.2044 13.3955C20.4772 13.6683 20.4772 14.1105 20.2044 14.3833L14.6735 19.9142C14.4007 20.187 13.9585 20.187 13.6857 19.9142C13.413 19.6415 13.413 19.1993 13.6857 18.9265L19.2167 13.3955C19.4895 13.1228 19.9317 13.1228 20.2044 13.3955Z" fill="white"/>
<path fill-rule="evenodd" clip-rule="evenodd" d="M31.3794 13.3955C31.6521 13.6683 31.6521 14.1105 31.3794 14.3833L25.8484 19.9142C25.5756 20.187 25.1334 20.187 24.8606 19.9142C24.5879 19.6415 24.5879 19.1993 24.8606 18.9265L30.3916 13.3955C30.6644 13.1228 31.1066 13.1228 31.3794 13.3955Z" fill="white"/>
</svg>
