<svg width="28" height="28" viewBox="0 0 28 28" fill="none" xmlns="http://www.w3.org/2000/svg">
<path fill-rule="evenodd" clip-rule="evenodd" d="M13.6656 26.0601C20.5109 26.0601 26.0601 20.5109 26.0601 13.6656C26.0601 6.82039 20.5109 1.27122 13.6656 1.27122C6.82039 1.27122 1.27122 6.82039 1.27122 13.6656C1.27122 20.5109 6.82039 26.0601 13.6656 26.0601ZM13.6656 27.3313C21.213 27.3313 27.3313 21.213 27.3313 13.6656C27.3313 6.11832 21.213 0 13.6656 0C6.11832 0 0 6.11832 0 13.6656C0 21.213 6.11832 27.3313 13.6656 27.3313Z" fill="white"/>
<path fill-rule="evenodd" clip-rule="evenodd" d="M13.7234 24.2688C19.5475 24.2688 24.2688 19.5475 24.2688 13.7234C24.2688 7.89937 19.5475 3.17805 13.7234 3.17805C7.89937 3.17805 3.17805 7.89937 3.17805 13.7234C3.17805 19.5475 7.89937 24.2688 13.7234 24.2688ZM13.7234 24.9044C19.8985 24.9044 24.9044 19.8985 24.9044 13.7234C24.9044 7.54833 19.8985 2.54243 13.7234 2.54243C7.54833 2.54243 2.54243 7.54833 2.54243 13.7234C2.54243 19.8985 7.54833 24.9044 13.7234 24.9044Z" fill="white"/>
<path d="M15.2547 13.9834C15.2547 14.6855 14.6855 15.2547 13.9834 15.2547C13.2814 15.2547 12.7122 14.6855 12.7122 13.9834C12.7122 13.2814 13.2814 12.7122 13.9834 12.7122C14.6855 12.7122 15.2547 13.2814 15.2547 13.9834Z" fill="white"/>
<path fill-rule="evenodd" clip-rule="evenodd" d="M13.9835 8.26294C14.3345 8.26294 14.6191 8.54751 14.6191 8.89855L14.6191 12.9516C14.6191 13.3026 14.3345 13.5872 13.9835 13.5872C13.6324 13.5872 13.3478 13.3026 13.3478 12.9516L13.3478 8.89855C13.3478 8.54751 13.6324 8.26294 13.9835 8.26294Z" fill="white"/>
<path fill-rule="evenodd" clip-rule="evenodd" d="M18.0263 18.2147C17.7882 18.4726 17.3861 18.4887 17.1282 18.2506L13.4479 14.8534C13.1899 14.6153 13.1739 14.2132 13.412 13.9552C13.6501 13.6973 14.0522 13.6812 14.3101 13.9193L17.9904 17.3165C18.2484 17.5546 18.2644 17.9567 18.0263 18.2147Z" fill="white"/>
<path d="M14.6191 5.08489C14.6191 5.43593 14.3345 5.7205 13.9835 5.7205C13.6324 5.7205 13.3478 5.43593 13.3478 5.08489C13.3478 4.73385 13.6324 4.44928 13.9835 4.44928C14.3345 4.44928 14.6191 4.73385 14.6191 5.08489Z" fill="white"/>
<path d="M22.882 13.3478C22.882 13.6989 22.5974 13.9834 22.2464 13.9834C21.8954 13.9834 21.6108 13.6989 21.6108 13.3478C21.6108 12.9968 21.8954 12.7122 22.2464 12.7122C22.5974 12.7122 22.882 12.9968 22.882 13.3478Z" fill="white"/>
<path d="M20.3396 7.62733C20.3396 7.97836 20.055 8.26294 19.7039 8.26294C19.3529 8.26294 19.0683 7.97836 19.0683 7.62733C19.0683 7.27629 19.3529 6.99171 19.7039 6.99171C20.055 6.99171 20.3396 7.27629 20.3396 7.62733Z" fill="white"/>
<path d="M17.7971 5.7205C17.7971 6.07153 17.5126 6.35611 17.1615 6.35611C16.8105 6.35611 16.5259 6.07153 16.5259 5.7205C16.5259 5.36946 16.8105 5.08488 17.1615 5.08488C17.5126 5.08488 17.7971 5.36946 17.7971 5.7205Z" fill="white"/>
<path d="M22.2464 10.1698C22.2464 10.5208 21.9618 10.8054 21.6108 10.8054C21.2597 10.8054 20.9752 10.5208 20.9752 10.1698C20.9752 9.81874 21.2597 9.53416 21.6108 9.53416C21.9618 9.53416 22.2464 9.81874 22.2464 10.1698Z" fill="white"/>
<path d="M22.2464 16.5259C22.2464 16.8769 21.9618 17.1615 21.6108 17.1615C21.2597 17.1615 20.9752 16.8769 20.9752 16.5259C20.9752 16.1748 21.2597 15.8903 21.6108 15.8903C21.9618 15.8903 22.2464 16.1748 22.2464 16.5259Z" fill="white"/>
<path d="M20.3396 19.0683C20.3396 19.4194 20.055 19.7039 19.7039 19.7039C19.3529 19.7039 19.0683 19.4194 19.0683 19.0683C19.0683 18.7173 19.3529 18.4327 19.7039 18.4327C20.055 18.4327 20.3396 18.7173 20.3396 19.0683Z" fill="white"/>
</svg>
