<svg width="28" height="27" viewBox="0 0 28 27" fill="none" xmlns="http://www.w3.org/2000/svg">
<path d="M1.55432 9.9324C1.55432 9.18287 2.19106 8.24596 2.50942 7.96489C2.82779 7.68381 3.46453 7.40274 4.10126 7.40274H9.51351" stroke="#EAEAEA" stroke-width="1.5" stroke-linecap="round"/>
<path d="M9.29411 3.35527C9.29411 4.5843 8.23858 5.64086 6.86043 5.64086C5.48229 5.64086 4.42676 4.5843 4.42676 3.35527C4.42676 2.12623 5.48229 1.06967 6.86043 1.06967C8.23858 1.06967 9.29411 2.12623 9.29411 3.35527Z" stroke="#EAEAEA" stroke-width="1.5" stroke-linecap="round"/>
<path d="M24.1513 3.35527C24.1513 4.5843 23.0958 5.64086 21.7176 5.64086C20.3395 5.64086 19.2839 4.5843 19.2839 3.35527C19.2839 2.12623 20.3395 1.06967 21.7176 1.06967C23.0958 1.06967 24.1513 2.12623 24.1513 3.35527Z" stroke="#EAEAEA" stroke-width="1.5" stroke-linecap="round"/>
<path d="M16.7227 8.41459C16.7227 9.64363 15.6672 10.7002 14.289 10.7002C12.9109 10.7002 11.8553 9.64363 11.8553 8.41459C11.8553 7.18556 12.9109 6.129 14.289 6.129C15.6672 6.129 16.7227 7.18556 16.7227 8.41459Z" stroke="#EAEAEA" stroke-width="1.5" stroke-linecap="round"/>
<mask id="path-5-inside-1" fill="white">
<path fill-rule="evenodd" clip-rule="evenodd" d="M16.0421 11.808C17.1467 11.808 18.0421 12.7035 18.0421 13.808V18.2732C18.0421 19.1195 17.5164 19.843 16.7738 20.1351V24.3196C16.7738 25.4242 15.8783 26.3196 14.7738 26.3196H13.7006C12.596 26.3196 11.7006 25.4242 11.7006 24.3196V20.1351C10.958 19.843 10.4324 19.1194 10.4324 18.2732V13.808C10.4324 12.7035 11.3278 11.808 12.4324 11.808H16.0421Z"/>
</mask>
<path d="M16.7738 20.1351L16.2248 18.7392L15.2738 19.1132V20.1351H16.7738ZM11.7006 20.1351H13.2006V19.1132L12.2497 18.7392L11.7006 20.1351ZM19.5421 13.808C19.5421 11.875 17.9751 10.308 16.0421 10.308V13.308C16.3183 13.308 16.5421 13.5319 16.5421 13.808H19.5421ZM19.5421 18.2732V13.808H16.5421V18.2732H19.5421ZM17.3227 21.531C18.6198 21.021 19.5421 19.7566 19.5421 18.2732H16.5421C16.5421 18.4824 16.4131 18.6651 16.2248 18.7392L17.3227 21.531ZM18.2738 24.3196V20.1351H15.2738V24.3196H18.2738ZM14.7738 27.8196C16.7068 27.8196 18.2738 26.2526 18.2738 24.3196H15.2738C15.2738 24.5958 15.0499 24.8196 14.7738 24.8196V27.8196ZM13.7006 27.8196H14.7738V24.8196H13.7006V27.8196ZM10.2006 24.3196C10.2006 26.2526 11.7676 27.8196 13.7006 27.8196V24.8196C13.4245 24.8196 13.2006 24.5958 13.2006 24.3196H10.2006ZM10.2006 20.1351V24.3196H13.2006V20.1351H10.2006ZM8.93237 18.2732C8.93237 19.7565 9.85461 21.0208 11.1515 21.531L12.2497 18.7392C12.0614 18.6651 11.9324 18.4824 11.9324 18.2732H8.93237ZM8.93237 13.808V18.2732H11.9324V13.808H8.93237ZM12.4324 10.308C10.4994 10.308 8.93237 11.875 8.93237 13.808H11.9324C11.9324 13.5319 12.1562 13.308 12.4324 13.308V10.308ZM16.0421 10.308H12.4324V13.308H16.0421V10.308Z" fill="#EAEAEA" mask="url(#path-5-inside-1)"/>
<path d="M19.0645 6.89682H22.298H23.9724C24.8889 6.89682 25.6882 7.51987 25.9119 8.40874L27.0607 12.9738C27.3113 13.9696 26.5583 14.9355 25.5314 14.9355V14.9355M24.4255 10.9162L25.5314 14.9355M25.5314 14.9355C25.7886 15.5539 26.3028 16.8524 26.3028 17.0998C26.3028 17.409 26.3028 18.0273 25.0513 18.0273C24.9016 18.0273 22.6526 18.0273 22.5483 18.0273L19.4195 18.0273" stroke="#EAEAEA" stroke-width="1.5" stroke-linecap="round"/>
<path d="M4.2074 18.0273L4.2074 10.4383" stroke="#EAEAEA" stroke-width="1.5" stroke-linecap="round"/>
<path d="M24.3707 18.0273V24.4488C24.3707 25.2249 23.7768 25.6163 23.0442 25.6163C22.3116 25.6163 21.7177 25.2249 21.7177 24.4488V18.0273" stroke="#EAEAEA" stroke-width="1.5" stroke-linecap="round" stroke-linejoin="bevel"/>
<path d="M21.7175 18.0273V24.4488C21.7175 25.2249 21.1236 25.6163 20.391 25.6163C19.6584 25.6163 19.0645 25.2249 19.0645 24.4488V18.0273" stroke="#EAEAEA" stroke-width="1.5" stroke-linecap="round" stroke-linejoin="bevel"/>
<path d="M8.98292 18.0273V24.4488C8.98292 25.2249 8.5078 25.6163 7.9217 25.6163C7.3356 25.6163 6.86047 25.2249 6.86047 24.4488V18.0273" stroke="#EAEAEA" stroke-width="1.5" stroke-linecap="round" stroke-linejoin="bevel"/>
<path d="M6.86046 18.0273V24.4488C6.86046 25.2249 6.26655 25.6163 5.53393 25.6163C4.80131 25.6163 4.2074 25.2249 4.2074 24.4488V18.0273" stroke="#EAEAEA" stroke-width="1.5" stroke-linecap="round" stroke-linejoin="bevel"/>
<path d="M4.20738 15.3216C4.20738 16.1113 3.61347 16.5095 2.88085 16.5095C2.14823 16.5095 1.55432 16.1113 1.55432 15.3216V9.93239" stroke="#EAEAEA" stroke-width="1.5" stroke-linecap="round" stroke-linejoin="bevel"/>
<ellipse rx="0.530612" ry="0.505932" transform="matrix(1 0 0 -1 6.86045 10.9442)" fill="#EAEAEA"/>
<ellipse rx="0.530612" ry="0.505932" transform="matrix(1 0 0 -1 21.7176 10.9442)" fill="#EAEAEA"/>
<ellipse rx="0.530612" ry="0.505932" transform="matrix(1 0 0 -1 6.86045 12.4621)" fill="#EAEAEA"/>
<ellipse rx="0.530612" ry="0.505932" transform="matrix(1 0 0 -1 21.7176 12.4621)" fill="#EAEAEA"/>
<ellipse rx="0.530612" ry="0.505932" transform="matrix(1 0 0 -1 6.86045 13.9798)" fill="#EAEAEA"/>
<ellipse rx="0.530612" ry="0.505932" transform="matrix(1 0 0 -1 21.7176 13.9798)" fill="#EAEAEA"/>
</svg>
