<svg width="36" height="36" viewBox="0 0 36 36" fill="none" xmlns="http://www.w3.org/2000/svg">
<path d="M1.56458 13.2582C1.56458 12.2492 2.39724 10.988 2.81356 10.6096C3.22989 10.2313 4.06254 9.85291 4.8952 9.85291H11.9727" stroke="#4A6FA4" stroke-width="1.5" stroke-linecap="round"/>
<path d="M11.9166 4.40437C11.9166 6.23388 10.4017 7.74075 8.50336 7.74075C6.60503 7.74075 5.0901 6.23388 5.0901 4.40437C5.0901 2.57486 6.60503 1.06799 8.50336 1.06799C10.4017 1.06799 11.9166 2.57486 11.9166 4.40437Z" stroke="#4A6FA4" stroke-width="1.5" stroke-linecap="round"/>
<path d="M31.3452 4.40437C31.3452 6.23388 29.8303 7.74075 27.9319 7.74075C26.0336 7.74075 24.5187 6.23388 24.5187 4.40437C24.5187 2.57486 26.0336 1.06799 27.9319 1.06799C29.8303 1.06799 31.3452 2.57486 31.3452 4.40437Z" stroke="#4A6FA4" stroke-width="1.5" stroke-linecap="round"/>
<path d="M21.6309 11.215C21.6309 13.0446 20.116 14.5514 18.2176 14.5514C16.3193 14.5514 14.8044 13.0446 14.8044 11.215C14.8044 9.38553 16.3193 7.87866 18.2176 7.87866C20.116 7.87866 21.6309 9.38553 21.6309 11.215Z" stroke="#4A6FA4" stroke-width="1.5" stroke-linecap="round"/>
<mask id="path-5-inside-1" fill="white">
<path fill-rule="evenodd" clip-rule="evenodd" d="M21.1255 15.7831C22.2301 15.7831 23.1255 16.6785 23.1255 17.7831V25.1784C23.1255 26.1666 22.4089 26.9874 21.467 27.1494V33.3179C21.467 34.4225 20.5716 35.3179 19.467 35.3179H16.8329C15.7283 35.3179 14.8329 34.4225 14.8329 33.3179V27.1494C13.891 26.9874 13.1743 26.1666 13.1743 25.1784V17.7831C13.1743 16.6785 14.0698 15.7831 15.1743 15.7831H21.1255Z"/>
</mask>
<path d="M21.467 27.1494L21.2127 25.6711L19.967 25.8854V27.1494H21.467ZM14.8329 27.1494H16.3329V25.8854L15.0872 25.6711L14.8329 27.1494ZM24.6255 17.7831C24.6255 15.8501 23.0585 14.2831 21.1255 14.2831V17.2831C21.4017 17.2831 21.6255 17.5069 21.6255 17.7831H24.6255ZM24.6255 25.1784V17.7831H21.6255V25.1784H24.6255ZM21.7213 28.6277C23.3707 28.3439 24.6255 26.9092 24.6255 25.1784H21.6255C21.6255 25.4239 21.4471 25.6308 21.2127 25.6711L21.7213 28.6277ZM22.967 33.3179V27.1494H19.967V33.3179H22.967ZM19.467 36.8179C21.4 36.8179 22.967 35.2509 22.967 33.3179H19.967C19.967 33.594 19.7432 33.8179 19.467 33.8179V36.8179ZM16.8329 36.8179H19.467V33.8179H16.8329V36.8179ZM13.3329 33.3179C13.3329 35.2509 14.8999 36.8179 16.8329 36.8179V33.8179C16.5567 33.8179 16.3329 33.5941 16.3329 33.3179H13.3329ZM13.3329 27.1494V33.3179H16.3329V27.1494H13.3329ZM11.6743 25.1784C11.6743 26.9092 12.9292 28.3439 14.5786 28.6277L15.0872 25.6711C14.8528 25.6308 14.6743 25.4239 14.6743 25.1784H11.6743ZM11.6743 17.7831V25.1784H14.6743V17.7831H11.6743ZM15.1743 14.2831C13.2413 14.2831 11.6743 15.8501 11.6743 17.7831H14.6743C14.6743 17.5069 14.8982 17.2831 15.1743 17.2831V14.2831ZM21.1255 14.2831H15.1743V17.2831H21.1255V14.2831Z" fill="#4A6FA4" mask="url(#path-5-inside-1)"/>
<path d="M24.4626 9.17189H28.6909H31.3493C32.2709 9.17189 33.0732 9.80169 33.2921 10.697L34.9364 17.4235C35.2562 18.7315 34.2657 19.9932 32.9193 19.9932V19.9932M31.4731 14.5825L32.9193 19.9932M32.9193 19.9932C33.2555 20.8256 33.928 22.5737 33.928 22.9066C33.928 23.3228 33.928 24.1553 32.2914 24.1553C32.0957 24.1553 29.1546 24.1553 29.0182 24.1553L24.9267 24.1553" stroke="#4A6FA4" stroke-width="1.5" stroke-linecap="round"/>
<path d="M5.03397 24.1552L5.03397 13.9392" stroke="#4A6FA4" stroke-width="1.5" stroke-linecap="round"/>
<path d="M31.4013 24.1553V32.7995C31.4013 33.8444 30.6247 34.3712 29.6666 34.3712C28.7086 34.3712 27.9319 33.8444 27.9319 32.7995V24.1553" stroke="#4A6FA4" stroke-width="1.5" stroke-linecap="round" stroke-linejoin="bevel"/>
<path d="M27.9319 24.1553V32.7995C27.9319 33.8444 27.1553 34.3712 26.1972 34.3712C25.2392 34.3712 24.4625 33.8444 24.4625 32.7995V24.1553" stroke="#4A6FA4" stroke-width="1.5" stroke-linecap="round" stroke-linejoin="bevel"/>
<path d="M11.2789 24.1553V32.7995C11.2789 33.8444 10.6575 34.3712 9.8911 34.3712C9.12467 34.3712 8.50335 33.8444 8.50335 32.7995V24.1553" stroke="#4A6FA4" stroke-width="1.5" stroke-linecap="round" stroke-linejoin="bevel"/>
<path d="M8.50336 24.1553V32.7995C8.50336 33.8444 7.72671 34.3712 6.76867 34.3712C5.81062 34.3712 5.03397 33.8444 5.03397 32.7995V24.1553" stroke="#4A6FA4" stroke-width="1.5" stroke-linecap="round" stroke-linejoin="bevel"/>
<path d="M5.03397 20.5129C5.03397 21.576 4.25732 22.112 3.29928 22.112C2.34123 22.112 1.56458 21.576 1.56458 20.5129V13.2582" stroke="#4A6FA4" stroke-width="1.5" stroke-linecap="round" stroke-linejoin="bevel"/>
<ellipse rx="0.693878" ry="0.681063" transform="matrix(1 0 0 -1 8.50336 14.6203)" fill="#4A6FA4"/>
<ellipse rx="0.693878" ry="0.681063" transform="matrix(1 0 0 -1 27.9319 14.6203)" fill="#4A6FA4"/>
<ellipse rx="0.693878" ry="0.681063" transform="matrix(1 0 0 -1 8.50336 16.6635)" fill="#4A6FA4"/>
<ellipse rx="0.693878" ry="0.681063" transform="matrix(1 0 0 -1 27.9319 16.6635)" fill="#4A6FA4"/>
<ellipse rx="0.693878" ry="0.681063" transform="matrix(1 0 0 -1 8.50336 18.7066)" fill="#4A6FA4"/>
<ellipse rx="0.693878" ry="0.681063" transform="matrix(1 0 0 -1 27.9319 18.7066)" fill="#4A6FA4"/>
</svg>
