<svg width="43" height="39" viewBox="0 0 43 39" fill="none" xmlns="http://www.w3.org/2000/svg">
<path fill-rule="evenodd" clip-rule="evenodd" d="M7.28132 6.46093L4.65917 2.72194L2.03703 6.46092V37.5856H7.28132V6.46093ZM4.65917 0.438538L8.59239 6.04702V38.8967H0.725952V6.04702L4.65917 0.438538Z" fill="white"/>
<path fill-rule="evenodd" clip-rule="evenodd" d="M18.6439 6.46093L16.0218 2.72194L13.3997 6.46092V37.5856H18.6439V6.46093ZM16.0218 0.438538L19.955 6.04702V38.8967H12.0886V6.04702L16.0218 0.438538Z" fill="white"/>
<path fill-rule="evenodd" clip-rule="evenodd" d="M30.0066 6.46093L27.3844 2.72194L24.7623 6.46092V37.5856H30.0066V6.46093ZM27.3844 0.438538L31.3176 6.04702V38.8967H23.4512V6.04702L27.3844 0.438538Z" fill="white"/>
<path fill-rule="evenodd" clip-rule="evenodd" d="M41.3692 6.46093L38.747 2.72194L36.1249 6.46092V37.5856H41.3692V6.46093ZM38.747 0.438538L42.6802 6.04702V38.8967H34.8138V6.04702L38.747 0.438538Z" fill="white"/>
<path fill-rule="evenodd" clip-rule="evenodd" d="M12.0886 14.4233H8.59239V12.6752H12.0886V14.4233Z" fill="white"/>
<path fill-rule="evenodd" clip-rule="evenodd" d="M23.4513 14.4233H19.081V12.6752H23.4513V14.4233Z" fill="white"/>
<path fill-rule="evenodd" clip-rule="evenodd" d="M34.8138 14.4233H31.3176V12.6752H34.8138V14.4233Z" fill="white"/>
<path fill-rule="evenodd" clip-rule="evenodd" d="M12.0886 32.7783H8.59239V31.0302H12.0886V32.7783Z" fill="white"/>
<path fill-rule="evenodd" clip-rule="evenodd" d="M23.4513 32.7783H19.081V31.0302H23.4513V32.7783Z" fill="white"/>
<path fill-rule="evenodd" clip-rule="evenodd" d="M34.8138 32.7783H31.3176V31.0302H34.8138V32.7783Z" fill="white"/>
<path d="M5.97022 13.5492C5.97022 13.0665 5.57889 12.6752 5.09617 12.6752C4.61345 12.6752 4.22212 13.0665 4.22212 13.5492C4.22212 14.032 4.61345 14.4233 5.09617 14.4233C5.57889 14.4233 5.97022 14.032 5.97022 13.5492Z" fill="white"/>
<path d="M17.3328 13.5492C17.3328 13.0665 16.9415 12.6752 16.4588 12.6752C15.9761 12.6752 15.5847 13.0665 15.5847 13.5492C15.5847 14.032 15.9761 14.4233 16.4588 14.4233C16.9415 14.4233 17.3328 14.032 17.3328 13.5492Z" fill="white"/>
<path d="M28.6956 13.5492C28.6956 13.0665 28.3042 12.6752 27.8215 12.6752C27.3388 12.6752 26.9475 13.0665 26.9475 13.5492C26.9475 14.032 27.3388 14.4233 27.8215 14.4233C28.3042 14.4233 28.6956 14.032 28.6956 13.5492Z" fill="white"/>
<path d="M40.0582 13.5492C40.0582 13.0665 39.6669 12.6752 39.1841 12.6752C38.7014 12.6752 38.3101 13.0665 38.3101 13.5492C38.3101 14.032 38.7014 14.4233 39.1841 14.4233C39.6669 14.4233 40.0582 14.032 40.0582 13.5492Z" fill="white"/>
<path d="M5.97022 32.7784C5.97022 32.2956 5.57889 31.9043 5.09617 31.9043C4.61345 31.9043 4.22212 32.2956 4.22212 32.7784C4.22212 33.2611 4.61345 33.6524 5.09617 33.6524C5.57889 33.6524 5.97022 33.2611 5.97022 32.7784Z" fill="white"/>
<path d="M17.3328 32.7784C17.3328 32.2956 16.9415 31.9043 16.4588 31.9043C15.9761 31.9043 15.5847 32.2956 15.5847 32.7784C15.5847 33.2611 15.9761 33.6524 16.4588 33.6524C16.9415 33.6524 17.3328 33.2611 17.3328 32.7784Z" fill="white"/>
<path d="M28.6956 32.7784C28.6956 32.2956 28.3042 31.9043 27.8215 31.9043C27.3388 31.9043 26.9475 32.2956 26.9475 32.7784C26.9475 33.2611 27.3388 33.6524 27.8215 33.6524C28.3042 33.6524 28.6956 33.2611 28.6956 32.7784Z" fill="white"/>
<path d="M40.0582 32.7784C40.0582 32.2956 39.6669 31.9043 39.1841 31.9043C38.7014 31.9043 38.3101 32.2956 38.3101 32.7784C38.3101 33.2611 38.7014 33.6524 39.1841 33.6524C39.6669 33.6524 40.0582 33.2611 40.0582 32.7784Z" fill="white"/>
</svg>
