<svg width="18" height="28" viewBox="0 0 18 28" fill="none" xmlns="http://www.w3.org/2000/svg">
<circle cx="9.21636" cy="8.58075" r="3.63147" stroke="white"/>
<line x1="0.75" y1="26.5813" x2="17.0471" y2="26.5813" stroke="white" stroke-width="1.5" stroke-linecap="round"/>
<mask id="path-3-inside-1" fill="white">
<path d="M17.7971 8.30281C17.7971 12.8883 10.1894 23.5176 9.21636 23.5176C8.24329 23.5176 0.635611 12.8883 0.635611 8.30281C0.635611 3.71729 4.47734 0 9.21636 0C13.9554 0 17.7971 3.71729 17.7971 8.30281Z"/>
</mask>
<path d="M16.2971 8.30281C16.2971 9.11838 15.9346 10.4008 15.2222 12.0062C14.5312 13.563 13.5879 15.257 12.6004 16.8335C11.6138 18.4087 10.6037 19.8335 9.79393 20.8511C9.38589 21.3638 9.04949 21.7468 8.80652 21.9885C8.68183 22.1126 8.61296 22.168 8.59394 22.1818C8.58432 22.1887 8.61756 22.1629 8.68665 22.1303C8.73748 22.1064 8.93213 22.0176 9.21636 22.0176V25.0176C9.56141 25.0176 9.82984 24.9081 9.96653 24.8436C10.1215 24.7705 10.2527 24.6845 10.3522 24.6125C10.5516 24.4683 10.7459 24.2909 10.9224 24.1153C11.2817 23.7578 11.6993 23.2746 12.1413 22.7192C13.0316 21.6005 14.1059 20.0814 15.1428 18.426C16.1789 16.772 17.1983 14.9489 17.9643 13.2231C18.7086 11.5458 19.2971 9.78 19.2971 8.30281H16.2971ZM9.21636 22.0176C9.50059 22.0176 9.69525 22.1064 9.74607 22.1303C9.81516 22.1629 9.8484 22.1887 9.83878 22.1818C9.81977 22.168 9.75089 22.1126 9.6262 21.9885C9.38323 21.7468 9.04683 21.3638 8.63879 20.8511C7.82899 19.8335 6.81894 18.4087 5.83229 16.8335C4.84479 15.257 3.9015 13.563 3.21056 12.0062C2.49808 10.4008 2.13561 9.11838 2.13561 8.30281H-0.864389C-0.864389 9.78 -0.275901 11.5458 0.468469 13.2231C1.23438 14.9489 2.25382 16.772 3.28988 18.426C4.32677 20.0814 5.4011 21.6005 6.29141 22.7192C6.73343 23.2746 7.15103 23.7578 7.51035 24.1153C7.68682 24.2909 7.88116 24.4683 8.0805 24.6125C8.18005 24.6845 8.31124 24.7705 8.46619 24.8436C8.60288 24.9081 8.87132 25.0176 9.21636 25.0176V22.0176ZM2.13561 8.30281C2.13561 4.59189 5.25883 1.5 9.21636 1.5V-1.5C3.69586 -1.5 -0.864389 2.8427 -0.864389 8.30281H2.13561ZM9.21636 1.5C13.1739 1.5 16.2971 4.59189 16.2971 8.30281H19.2971C19.2971 2.8427 14.7369 -1.5 9.21636 -1.5V1.5Z" fill="white" mask="url(#path-3-inside-1)"/>
</svg>
