<svg width="49" height="39" viewBox="0 0 49 39" fill="none" xmlns="http://www.w3.org/2000/svg">
<path d="M10.8418 33.7768C10.8367 34.2278 10.467 34.5893 10.016 34.5842C9.56501 34.5791 9.20352 34.2094 9.2086 33.7584C9.21368 33.3074 9.58341 32.9459 10.0344 32.951C10.4854 32.9561 10.8469 33.3258 10.8418 33.7768Z" fill="white"/>
<path d="M34.9584 34.0485C34.9533 34.4995 34.5836 34.8609 34.1326 34.8559C33.6816 34.8508 33.3201 34.4811 33.3251 34.0301C33.3302 33.579 33.7 33.2176 34.151 33.2226C34.602 33.2277 34.9635 33.5975 34.9584 34.0485Z" fill="white"/>
<path d="M13.9536 33.8119C13.9485 34.2629 13.5788 34.6244 13.1278 34.6193C12.6768 34.6142 12.3153 34.2445 12.3204 33.7935C12.3254 33.3425 12.6952 32.981 13.1462 32.9861C13.5972 32.9912 13.9587 33.3609 13.9536 33.8119Z" fill="white"/>
<path d="M38.0702 34.0836C38.0652 34.5346 37.6954 34.896 37.2444 34.891C36.7934 34.8859 36.4319 34.5162 36.437 34.0651C36.4421 33.6141 36.8118 33.2527 37.2628 33.2577C37.7138 33.2628 38.0753 33.6325 38.0702 34.0836Z" fill="white"/>
<path d="M17.0654 33.847C17.0604 34.298 16.6906 34.6595 16.2396 34.6544C15.7886 34.6493 15.4271 34.2796 15.4322 33.8286C15.4373 33.3776 15.807 33.0161 16.258 33.0212C16.709 33.0262 17.0705 33.396 17.0654 33.847Z" fill="white"/>
<path d="M28.0093 29.3019C28.0042 29.7529 27.6345 30.1144 27.1835 30.1093C26.7325 30.1042 26.371 29.7345 26.3761 29.2835C26.3811 28.8325 26.7509 28.471 27.2019 28.4761C27.6529 28.4811 28.0144 28.8509 28.0093 29.3019Z" fill="white"/>
<path d="M41.182 34.1186C41.1769 34.5696 40.8072 34.9311 40.3562 34.9261C39.9052 34.921 39.5437 34.5512 39.5488 34.1002C39.5539 33.6492 39.9236 33.2877 40.3746 33.2928C40.8256 33.2979 41.1871 33.6676 41.182 34.1186Z" fill="white"/>
<path fill-rule="evenodd" clip-rule="evenodd" d="M20.2884 19.9323L30.0827 19.9309L30.0653 37.7703C30.065 38.1086 29.7905 38.3828 29.4522 38.3829C29.1139 38.3829 28.84 38.1087 28.8403 37.7705L28.8566 21.156L21.5122 21.1571L21.496 37.7715C21.4956 38.1098 21.2211 38.384 20.8829 38.3841C20.5446 38.3841 20.2706 38.1099 20.271 37.7717L20.2884 19.9323Z" fill="white"/>
<path fill-rule="evenodd" clip-rule="evenodd" d="M5.71623 13.3716C6.0545 13.3716 6.32846 13.6458 6.32813 13.984L6.30544 37.1611L43.2529 37.1559L43.2756 13.9788C43.2759 13.6405 43.5504 13.3663 43.8887 13.3662C44.2269 13.3662 44.5009 13.6404 44.5006 13.9786L44.4767 38.3807L5.07924 38.3863L5.10313 13.9842C5.10346 13.6459 5.37795 13.3717 5.71623 13.3716Z" fill="white"/>
<path fill-rule="evenodd" clip-rule="evenodd" d="M24.701 1.12872L48.5033 16.0937C48.7897 16.2737 48.8758 16.6518 48.6956 16.9382C48.5155 17.2246 48.1374 17.3108 47.8511 17.1308L24.7081 2.5804L1.15344 17.7297C0.868891 17.9128 0.489932 17.8305 0.307017 17.546C0.124102 17.2615 0.206497 16.8825 0.491051 16.6995L24.701 1.12872Z" fill="white"/>
<path fill-rule="evenodd" clip-rule="evenodd" d="M24.8015 14.3971C26.2173 14.3969 27.4728 13.1692 27.4745 11.52C27.4761 9.8709 26.2229 8.64356 24.8071 8.64376C23.3913 8.64396 22.1358 9.87166 22.1342 11.5208C22.1325 13.1699 23.3857 14.3973 24.8015 14.3971ZM24.8003 15.6221C26.9515 15.6218 28.6972 13.7851 28.6995 11.5199C28.7017 9.25458 26.9596 7.41846 24.8083 7.41876C22.6571 7.41907 20.9114 9.25568 20.9092 11.521C20.9069 13.7862 22.6491 15.6224 24.8003 15.6221Z" fill="white"/>
<path fill-rule="evenodd" clip-rule="evenodd" d="M6.09051 28.9578C6.09084 28.6195 6.36534 28.3452 6.70361 28.3452L20.2802 28.3433C20.6184 28.3432 20.8924 28.6174 20.8921 28.9557C20.8917 29.294 20.6172 29.5682 20.279 29.5683L6.70241 29.5702C6.36414 29.5702 6.09018 29.296 6.09051 28.9578Z" fill="white"/>
<path fill-rule="evenodd" clip-rule="evenodd" d="M29.4615 28.9545C29.4618 28.6162 29.7363 28.3419 30.0746 28.3419L43.6511 28.34C43.9894 28.3399 44.2634 28.6141 44.263 28.9524C44.2627 29.2907 43.9882 29.5649 43.6499 29.565L30.0734 29.5669C29.7351 29.5669 29.4611 29.2928 29.4615 28.9545Z" fill="white"/>
<path fill-rule="evenodd" clip-rule="evenodd" d="M10.8263 10.8316C10.4881 10.8316 10.2138 10.5574 10.2138 10.2191L10.2138 0.827462C10.2138 0.489189 10.4881 0.214964 10.8263 0.214964C11.1646 0.214964 11.4388 0.489189 11.4388 0.827462L11.4388 10.2191C11.4388 10.5574 11.1646 10.8316 10.8263 10.8316Z" fill="white"/>
<path fill-rule="evenodd" clip-rule="evenodd" d="M14.52 3.31124C14.8582 3.3112 15.1322 3.58538 15.1319 3.92366L15.1282 7.62061C15.1279 7.95888 14.8534 8.23314 14.5151 8.23319C14.1769 8.23324 13.9029 7.95905 13.9032 7.62078L13.9069 3.92383C13.9072 3.58555 14.1817 3.31129 14.52 3.31124Z" fill="white"/>
</svg>
