<svg width="29" height="27" viewBox="0 0 29 27" fill="none" xmlns="http://www.w3.org/2000/svg">
<rect x="1.55957" y="1.10406" width="26.5" height="24.5" rx="6.25" stroke="#EAEAEA" stroke-width="1.5"/>
<path d="M23.5596 1.15723C26.1038 1.52115 28.0596 3.70921 28.0596 6.35406V19.8252H23.5596V1.15723Z" stroke="#EAEAEA" stroke-width="1.5"/>
<path d="M23.5596 6.03888C26.1038 6.40281 28.0596 8.59086 28.0596 11.2357V19.8252H23.5596V6.03888Z" stroke="#EAEAEA" stroke-width="1.5"/>
<path d="M23.5596 11.4087C26.1038 11.7727 28.0596 13.9607 28.0596 16.6056V19.8252H23.5596V11.4087Z" stroke="#EAEAEA" stroke-width="1.5"/>
<path d="M20.2721 13.9894C20.2721 17.9719 16.9604 21.2308 12.837 21.2308C8.71373 21.2308 5.40198 17.9719 5.40198 13.9894C5.40198 10.007 8.71373 6.74808 12.837 6.74808C16.9604 6.74808 20.2721 10.007 20.2721 13.9894Z" stroke="#EAEAEA" stroke-width="1.5"/>
<mask id="path-6-inside-1" fill="white">
<path fill-rule="evenodd" clip-rule="evenodd" d="M12.7374 9.34737C11.8629 9.34737 11.1541 10.0562 11.1541 10.9307V12.4391H9.53329C8.67953 12.4391 7.98743 13.1312 7.98743 13.985C7.98743 14.8387 8.67953 15.5308 9.53329 15.5308H11.1541V17.0392C11.1541 17.9136 11.8629 18.6225 12.7374 18.6225C13.6119 18.6225 14.3207 17.9136 14.3207 17.0392V15.5308H15.9416C16.7953 15.5308 17.4874 14.8387 17.4874 13.985C17.4874 13.1312 16.7953 12.4391 15.9416 12.4391H14.3207V10.9307C14.3207 10.0562 13.6119 9.34737 12.7374 9.34737Z"/>
</mask>
<path d="M11.1541 12.4391V13.7391H12.4541V12.4391H11.1541ZM11.1541 15.5308H12.4541V14.2308H11.1541V15.5308ZM14.3207 15.5308V14.2308H13.0207V15.5308H14.3207ZM14.3207 12.4391H13.0207V13.7391H14.3207V12.4391ZM12.4541 10.9307C12.4541 10.7742 12.5809 10.6474 12.7374 10.6474V8.04737C11.145 8.04737 9.85407 9.33827 9.85407 10.9307H12.4541ZM12.4541 12.4391V10.9307H9.85407V12.4391H12.4541ZM9.53329 13.7391H11.1541V11.1391H9.53329V13.7391ZM9.28743 13.985C9.28743 13.8492 9.3975 13.7391 9.53329 13.7391V11.1391C7.96156 11.1391 6.68743 12.4132 6.68743 13.985H9.28743ZM9.53329 14.2308C9.3975 14.2308 9.28743 14.1207 9.28743 13.985H6.68743C6.68743 15.5567 7.96156 16.8308 9.53329 16.8308V14.2308ZM11.1541 14.2308H9.53329V16.8308H11.1541V14.2308ZM12.4541 17.0392V15.5308H9.85407V17.0392H12.4541ZM12.7374 17.3225C12.5809 17.3225 12.4541 17.1957 12.4541 17.0392H9.85407C9.85407 18.6316 11.145 19.9225 12.7374 19.9225V17.3225ZM13.0207 17.0392C13.0207 17.1957 12.8939 17.3225 12.7374 17.3225V19.9225C14.3298 19.9225 15.6207 18.6316 15.6207 17.0392H13.0207ZM13.0207 15.5308V17.0392H15.6207V15.5308H13.0207ZM15.9416 14.2308H14.3207V16.8308H15.9416V14.2308ZM16.1874 13.985C16.1874 14.1207 16.0773 14.2308 15.9416 14.2308V16.8308C17.5133 16.8308 18.7874 15.5567 18.7874 13.985H16.1874ZM15.9416 13.7391C16.0773 13.7391 16.1874 13.8492 16.1874 13.985H18.7874C18.7874 12.4132 17.5133 11.1391 15.9416 11.1391V13.7391ZM14.3207 13.7391H15.9416V11.1391H14.3207V13.7391ZM13.0207 10.9307V12.4391H15.6207V10.9307H13.0207ZM12.7374 10.6474C12.8939 10.6474 13.0207 10.7742 13.0207 10.9307H15.6207C15.6207 9.33828 14.3298 8.04737 12.7374 8.04737V10.6474Z" fill="#EAEAEA" mask="url(#path-6-inside-1)"/>
</svg>
