<svg width="34" height="32" viewBox="0 0 34 32" fill="none" xmlns="http://www.w3.org/2000/svg">
<rect x="1.05145" y="0.759155" width="31.5482" height="29.8088" rx="6.25" stroke="#4A6FA4" stroke-width="1.5"/>
<path d="M27.0179 0.759155H27.3497C30.2492 0.759155 32.5997 3.10966 32.5997 6.00916V23.6092H27.0179V0.759155Z" stroke="#4A6FA4" stroke-width="1.5"/>
<path d="M27.0179 6.63757H27.3497C30.2492 6.63757 32.5997 8.98808 32.5997 11.8876V23.6092H27.0179V6.63757Z" stroke="#4A6FA4" stroke-width="1.5"/>
<path d="M27.0179 13.1039H27.3497C30.2492 13.1039 32.5997 15.4544 32.5997 18.3539V23.6092H27.0179V13.1039Z" stroke="#4A6FA4" stroke-width="1.5"/>
<path d="M23.4082 16.4287C23.4082 21.3264 19.4215 25.3018 14.4974 25.3018C9.57338 25.3018 5.58665 21.3264 5.58665 16.4287C5.58665 11.531 9.57338 7.55566 14.4974 7.55566C19.4215 7.55566 23.4082 11.531 23.4082 16.4287Z" stroke="#4A6FA4" stroke-width="1.5"/>
<mask id="path-6-inside-1" fill="white">
<path fill-rule="evenodd" clip-rule="evenodd" d="M14.3798 10.8387C13.3477 10.8387 12.511 11.6754 12.511 12.7075V14.5617H10.6349C9.60683 14.5617 8.77341 15.3951 8.77341 16.4232C8.77341 17.4513 9.60683 18.2847 10.6349 18.2847H12.511V20.139C12.511 21.1711 13.3477 22.0078 14.3798 22.0078C15.4119 22.0078 16.2486 21.1711 16.2486 20.139V18.2847H18.1247C19.1528 18.2847 19.9862 17.4513 19.9862 16.4232C19.9862 15.3951 19.1528 14.5617 18.1247 14.5617H16.2486V12.7075C16.2486 11.6754 15.4119 10.8387 14.3798 10.8387Z"/>
</mask>
<path d="M12.511 14.5617V15.8617H13.811V14.5617H12.511ZM12.511 18.2847H13.811V16.9847H12.511V18.2847ZM16.2486 18.2847V16.9847H14.9486V18.2847H16.2486ZM16.2486 14.5617H14.9486V15.8617H16.2486V14.5617ZM13.811 12.7075C13.811 12.3934 14.0657 12.1387 14.3798 12.1387V9.53875C12.6297 9.53875 11.211 10.9575 11.211 12.7075H13.811ZM13.811 14.5617V12.7075H11.211V14.5617H13.811ZM10.6349 15.8617H12.511V13.2617H10.6349V15.8617ZM10.0734 16.4232C10.0734 16.1131 10.3248 15.8617 10.6349 15.8617V13.2617C8.88886 13.2617 7.47341 14.6772 7.47341 16.4232H10.0734ZM10.6349 16.9847C10.3248 16.9847 10.0734 16.7333 10.0734 16.4232H7.47341C7.47341 18.1693 8.88886 19.5847 10.6349 19.5847V16.9847ZM12.511 16.9847H10.6349V19.5847H12.511V16.9847ZM13.811 20.139V18.2847H11.211V20.139H13.811ZM14.3798 20.7078C14.0657 20.7078 13.811 20.4531 13.811 20.139H11.211C11.211 21.889 12.6297 23.3078 14.3798 23.3078V20.7078ZM14.9486 20.139C14.9486 20.4531 14.6939 20.7078 14.3798 20.7078V23.3078C16.1299 23.3078 17.5486 21.8891 17.5486 20.139H14.9486ZM14.9486 18.2847V20.139H17.5486V18.2847H14.9486ZM18.1247 16.9847H16.2486V19.5847H18.1247V16.9847ZM18.6862 16.4232C18.6862 16.7333 18.4348 16.9847 18.1247 16.9847V19.5847C19.8707 19.5847 21.2862 18.1693 21.2862 16.4232H18.6862ZM18.1247 15.8617C18.4348 15.8617 18.6862 16.1131 18.6862 16.4232H21.2862C21.2862 14.6772 19.8707 13.2617 18.1247 13.2617V15.8617ZM16.2486 15.8617H18.1247V13.2617H16.2486V15.8617ZM14.9486 12.7075V14.5617H17.5486V12.7075H14.9486ZM14.3798 12.1387C14.6939 12.1387 14.9486 12.3934 14.9486 12.7075H17.5486C17.5486 10.9575 16.1299 9.53875 14.3798 9.53875V12.1387Z" fill="#4A6FA4" mask="url(#path-6-inside-1)"/>
</svg>
