<svg width="28" height="28" viewBox="0 0 28 28" fill="none" xmlns="http://www.w3.org/2000/svg">
<path d="M14.6191 6.99172C14.6191 7.34276 14.3345 7.62733 13.9835 7.62733C13.6324 7.62733 13.3478 7.34276 13.3478 6.99172C13.3478 6.64068 13.6324 6.35611 13.9835 6.35611C14.3345 6.35611 14.6191 6.64068 14.6191 6.99172Z" fill="white"/>
<path d="M17.7971 7.62733C17.7971 7.97836 17.5125 8.26294 17.1615 8.26294C16.8105 8.26294 16.5259 7.97836 16.5259 7.62733C16.5259 7.27629 16.8105 6.99171 17.1615 6.99171C17.5125 6.99171 17.7971 7.27629 17.7971 7.62733Z" fill="white"/>
<path d="M20.9752 13.3478C20.9752 13.6989 20.6906 13.9834 20.3396 13.9834C19.9885 13.9834 19.7039 13.6989 19.7039 13.3478C19.7039 12.9968 19.9885 12.7122 20.3396 12.7122C20.6906 12.7122 20.9752 12.9968 20.9752 13.3478Z" fill="white"/>
<path d="M20.3396 10.1698C20.3396 10.5208 20.055 10.8054 19.7039 10.8054C19.3529 10.8054 19.0683 10.5208 19.0683 10.1698C19.0683 9.81874 19.3529 9.53416 19.7039 9.53416C20.055 9.53416 20.3396 9.81874 20.3396 10.1698Z" fill="white"/>
<path fill-rule="evenodd" clip-rule="evenodd" d="M13.6656 26.0601C20.5109 26.0601 26.0601 20.5109 26.0601 13.6656C26.0601 6.82039 20.5109 1.27122 13.6656 1.27122C6.82039 1.27122 1.27122 6.82039 1.27122 13.6656C1.27122 20.5109 6.82039 26.0601 13.6656 26.0601ZM13.6656 27.3313C21.213 27.3313 27.3313 21.213 27.3313 13.6656C27.3313 6.11832 21.213 0 13.6656 0C6.11832 0 0 6.11832 0 13.6656C0 21.213 6.11832 27.3313 13.6656 27.3313Z" fill="white"/>
<path fill-rule="evenodd" clip-rule="evenodd" d="M13.6656 24.1532C19.4578 24.1532 24.1532 19.4578 24.1532 13.6656C24.1532 7.8735 19.4578 3.17805 13.6656 3.17805C7.87351 3.17805 3.17806 7.8735 3.17806 13.6656C3.17806 19.4578 7.87351 24.1532 13.6656 24.1532ZM13.6656 24.7888C19.8088 24.7888 24.7888 19.8088 24.7888 13.6656C24.7888 7.52246 19.8088 2.54243 13.6656 2.54243C7.52247 2.54243 2.54245 7.52246 2.54245 13.6656C2.54245 19.8088 7.52247 24.7888 13.6656 24.7888Z" fill="white"/>
<path fill-rule="evenodd" clip-rule="evenodd" d="M17.116 14.7359L16.7211 14.7359L16.4419 15.0152C15.7603 15.6967 14.9773 15.6241 14.5923 15.2392L12.2915 12.9383C11.9048 12.5516 11.8313 11.7846 12.5108 11.1051L12.79 10.8258L12.79 10.1965L12.8022 9.54973L12.5155 9.26303C12.2933 9.04082 12.0997 8.81016 11.8923 8.56311C11.8616 8.52653 11.8306 8.4896 11.7992 8.45229C11.5781 8.1899 11.3013 7.86519 10.9869 7.62637C10.6481 7.36893 10.1738 7.14084 9.58521 7.22618C9.04055 7.30515 8.583 7.62892 8.19151 8.02041C6.58282 9.6291 6.30558 12.2486 7.91773 13.8608L13.6699 19.6129C15.282 21.2251 17.9016 20.9478 19.5102 19.3391C19.9017 18.9477 20.2255 18.4901 20.3045 17.9454C20.3898 17.3569 20.1617 16.8826 19.9043 16.5437C19.6655 16.2293 19.3408 15.9525 19.0784 15.7315C19.0411 15.7 19.0041 15.669 18.9676 15.6383C18.7205 15.431 18.4898 15.2374 18.2676 15.0152L17.9884 14.7359L17.3857 14.7359M11.8366 10.1876L11.8366 10.4309C10.8795 11.388 10.7702 12.7653 11.6173 13.6125L13.9182 15.9133C14.7653 16.7605 16.1589 16.6465 17.116 15.6894L17.5935 15.6894C17.8473 15.9432 18.112 16.1652 18.3572 16.3708C19.2371 17.1088 19.8653 17.6357 18.8361 18.665C17.52 19.981 15.5089 20.1036 14.3441 18.9388L8.5919 13.1866C7.42706 12.0218 7.54963 10.0106 8.86568 8.69458C9.89493 7.66533 10.4218 8.29356 11.1598 9.17346C11.3654 9.41864 11.5875 9.68335 11.8413 9.9372L11.8366 10.1876ZM17.3857 14.7359L17.116 14.7359L17.3857 14.7359Z" fill="white"/>
</svg>
