<svg width="356" height="244" viewBox="0 0 356 244" fill="none" xmlns="http://www.w3.org/2000/svg">
<path fill-rule="evenodd" clip-rule="evenodd" d="M223.759 11.6248L235.313 0.346275L355.204 119.443L342.921 131.38L223.759 11.6248ZM100.806 133.97L116.017 118.566C118.649 115.742 126.107 110.21 134.887 110.672C143.667 111.134 149.969 114.716 152.023 116.448L194.191 158.423C198.576 162.937 209.719 171.768 219.208 170.977C228.697 170.186 233.559 168.524 234.804 167.792C237.056 166.346 242.635 162.449 246.93 158.423C251.225 154.398 262.773 142.787 268.011 137.485L182.731 52.0753L197.877 35.7582C200.777 33.0809 208.954 27.9605 218.459 28.8976C227.963 29.8346 235.248 35.6466 237.702 38.4355L336.967 137.719L283.179 192.301L249.718 225.713C234.152 241.257 208.955 241.313 193.319 225.839L177.066 209.756L161.194 193.889L100.806 133.97ZM116.369 0.369749L127.743 12.2493L12.2967 127.798L0.0895996 116.122L116.369 0.369749ZM18.833 135.034L134.219 18.9442L254.994 138.783L239.783 154.187C237.151 157.01 229.693 162.543 220.913 162.081C212.133 161.619 205.831 158.037 203.777 156.304L161.61 114.33C157.224 109.816 146.081 100.985 136.592 101.776C127.103 102.567 122.241 104.229 120.996 104.961C118.744 106.407 113.165 110.304 108.87 114.33C104.575 118.355 93.0268 129.966 87.7894 135.268L173.069 220.678L157.923 236.995C155.023 239.672 146.846 244.792 137.341 243.855C127.837 242.918 120.552 237.106 118.098 234.317L18.833 135.034Z" fill="#EAEAEA" fill-opacity="0.5"/>
</svg>
