<svg width="27" height="28" viewBox="0 0 27 28" fill="none" xmlns="http://www.w3.org/2000/svg">
<path d="M1.34534 4.83565H22.5953C24.3903 4.83565 25.8453 6.29072 25.8453 8.08565V23.3197C25.8453 25.1146 24.3903 26.5697 22.5953 26.5697H1.34534V4.83565Z" stroke="#EAEAEA" stroke-width="1.5"/>
<path d="M25.8453 13.1335H22.6345C21.2156 13.1335 20.0653 14.2838 20.0653 15.7027C20.0653 17.1216 21.2156 18.2718 22.6345 18.2718H25.8453V13.1335Z" stroke="#EAEAEA" stroke-width="1.5"/>
<ellipse cx="22.4353" cy="15.7026" rx="1.04" ry="1.10638" fill="#EAEAEA"/>
<path d="M1.11705 4.63882C1.11706 4.36223 1.05699 3.54706 1.68099 3.32578C2.30499 3.10451 15.461 1.9428 21.961 1.38961C22.3076 1.29741 23.105 1.22365 23.521 1.66621C23.937 2.10876 24.041 2.58818 24.041 2.77258V4.43217" stroke="#EAEAEA" stroke-width="1.5"/>
<ellipse cx="3.19529" cy="7.40477" rx="0.52" ry="0.553192" fill="#EAEAEA"/>
<ellipse cx="3.19529" cy="24.5537" rx="0.52" ry="0.553192" fill="#EAEAEA"/>
<ellipse cx="9.43516" cy="7.40477" rx="0.52" ry="0.553192" fill="#EAEAEA"/>
<ellipse cx="9.43516" cy="24.5537" rx="0.52" ry="0.553192" fill="#EAEAEA"/>
<ellipse cx="15.6753" cy="7.40477" rx="0.52" ry="0.553192" fill="#EAEAEA"/>
<ellipse cx="15.6753" cy="24.5537" rx="0.52" ry="0.553192" fill="#EAEAEA"/>
<ellipse cx="5.27549" cy="7.40477" rx="0.52" ry="0.553192" fill="#EAEAEA"/>
<ellipse cx="5.27549" cy="24.5537" rx="0.52" ry="0.553192" fill="#EAEAEA"/>
<ellipse cx="11.5154" cy="7.40477" rx="0.52" ry="0.553192" fill="#EAEAEA"/>
<ellipse cx="11.5154" cy="24.5537" rx="0.52" ry="0.553192" fill="#EAEAEA"/>
<ellipse cx="17.7555" cy="7.40477" rx="0.52" ry="0.553192" fill="#EAEAEA"/>
<ellipse cx="17.7555" cy="24.5537" rx="0.52" ry="0.553192" fill="#EAEAEA"/>
<ellipse cx="21.9153" cy="7.40477" rx="0.52" ry="0.553192" fill="#EAEAEA"/>
<ellipse cx="21.9153" cy="24.5537" rx="0.52" ry="0.553192" fill="#EAEAEA"/>
<ellipse cx="7.35533" cy="7.40477" rx="0.52" ry="0.553192" fill="#EAEAEA"/>
<ellipse cx="7.35533" cy="24.5537" rx="0.52" ry="0.553192" fill="#EAEAEA"/>
<ellipse cx="13.5953" cy="7.40477" rx="0.52" ry="0.553192" fill="#EAEAEA"/>
<ellipse cx="13.5953" cy="24.5537" rx="0.52" ry="0.553192" fill="#EAEAEA"/>
<ellipse cx="19.8353" cy="7.40477" rx="0.52" ry="0.553192" fill="#EAEAEA"/>
<ellipse cx="19.8353" cy="24.5537" rx="0.52" ry="0.553192" fill="#EAEAEA"/>
<ellipse cx="23.9953" cy="7.40477" rx="0.52" ry="0.553192" fill="#EAEAEA"/>
<ellipse cx="23.9953" cy="24.5537" rx="0.52" ry="0.553192" fill="#EAEAEA"/>
</svg>
