<svg width="38" height="37" viewBox="0 0 38 37" fill="none" xmlns="http://www.w3.org/2000/svg">
<path d="M1.13428 5.96082H33.2668C35.0617 5.96082 36.5168 7.41589 36.5168 9.21082V32.1921C36.5168 33.9871 35.0617 35.4421 33.2668 35.4421H1.13428V5.96082Z" stroke="#4A6FA4" stroke-width="1.5"/>
<path d="M36.5168 17.0256H31.3656C29.3355 17.0256 27.6897 18.6713 27.6897 20.7015C27.6897 22.7316 29.3355 24.3774 31.3656 24.3774H36.5168V17.0256Z" stroke="#4A6FA4" stroke-width="1.5"/>
<circle cx="31.3656" cy="20.7014" r="1.4753" fill="#4A6FA4"/>
<path d="M1.12416 5.94849C1.12417 5.57966 1.03896 4.49268 1.92414 4.19762C2.80932 3.90256 21.4719 2.3535 30.6925 1.61584C31.1843 1.4929 32.3153 1.39455 32.9055 1.98467C33.4956 2.57479 33.6431 3.21407 33.6431 3.45995V5.67292" stroke="#4A6FA4" stroke-width="1.5"/>
<circle cx="4.07249" cy="9.6367" r="0.737651" fill="#4A6FA4"/>
<circle cx="4.07249" cy="32.5039" r="0.737651" fill="#4A6FA4"/>
<circle cx="12.9243" cy="9.6367" r="0.737651" fill="#4A6FA4"/>
<circle cx="12.9243" cy="32.5039" r="0.737651" fill="#4A6FA4"/>
<circle cx="21.7761" cy="9.6367" r="0.737651" fill="#4A6FA4"/>
<circle cx="21.7761" cy="32.5039" r="0.737651" fill="#4A6FA4"/>
<circle cx="7.02317" cy="9.6367" r="0.737651" fill="#4A6FA4"/>
<circle cx="7.02317" cy="32.5039" r="0.737651" fill="#4A6FA4"/>
<circle cx="15.875" cy="9.6367" r="0.737651" fill="#4A6FA4"/>
<circle cx="15.875" cy="32.5039" r="0.737651" fill="#4A6FA4"/>
<circle cx="24.7268" cy="9.6367" r="0.737651" fill="#4A6FA4"/>
<circle cx="24.7268" cy="32.5039" r="0.737651" fill="#4A6FA4"/>
<circle cx="30.6279" cy="9.6367" r="0.737651" fill="#4A6FA4"/>
<circle cx="30.6279" cy="32.5039" r="0.737651" fill="#4A6FA4"/>
<circle cx="9.97373" cy="9.6367" r="0.737651" fill="#4A6FA4"/>
<circle cx="9.97373" cy="32.5039" r="0.737651" fill="#4A6FA4"/>
<circle cx="18.8255" cy="9.6367" r="0.737651" fill="#4A6FA4"/>
<circle cx="18.8255" cy="32.5039" r="0.737651" fill="#4A6FA4"/>
<circle cx="27.6773" cy="9.6367" r="0.737651" fill="#4A6FA4"/>
<circle cx="27.6773" cy="32.5039" r="0.737651" fill="#4A6FA4"/>
<circle cx="33.5786" cy="9.6367" r="0.737651" fill="#4A6FA4"/>
<circle cx="33.5786" cy="32.5039" r="0.737651" fill="#4A6FA4"/>
</svg>
